# AST/ASF file generated using VICON BodyLanguage
# -----------------------------------------------
:version 1.10
:name VICON
:units
  mass 1.0
  length 0.45
  angle deg
:documentation
   .ast/.asf automatically generated from VICON data using
   VICON BodyBuilder and BodyLanguage model FoxedUp or BRILLIANT.MOD
:root
   order TX TY TZ RX RY RZ
   axis XYZ
   position 0 0 0  
   orientation 0 0 0 
:bonedata
  begin
     id 1 
     name lhipjoint
     direction 0.682418 -0.694059 0.22932 
     length 2.25561 
     axis 0 0 0  XYZ
  end
  begin
     id 2 
     name lfemur
     direction 0.34202 -0.939693 0  
     length 6.96448  
     axis 0 0 20  XYZ
    dof rx ry rz
    limits (-160.0 20.0)
           (-70.0 70.0)
           (-60.0 70.0)
  end
  begin
     id 3 
     name ltibia
     direction 0.34202 -0.939693 0   
     length 6.88553   
     axis 0 0 20   XYZ
    dof rx
    limits (-10.0 170.0)
  end
  begin
     id 4 
     name lfoot
     direction 0.0723587 -0.198804 0.977364   
     length 1.88518   
     axis -90 7.62852e-016 20   XYZ
    dof rx rz
    limits (-45.0 90.0)
           (-70.0 20.0)
  end
  begin
     id 5 
     name ltoes
     direction 1.53558e-011 -4.21962e-011 1   
     length 0.952124   
     axis -90 7.62852e-016 20   XYZ
    dof rx
    limits (-90.0 20.0)
  end
  begin
     id 6 
     name rhipjoint
     direction -0.657603 -0.71533 0.236348   
     length 2.18854  
     axis 0 0 0  XYZ 
  end
  begin
     id 7 
     name rfemur
     direction -0.34202 -0.939693 0   
     length 6.86686   
     axis 0 0 -20   XYZ
    dof rx ry rz
    limits (-160.0 20.0)
           (-70.0 70.0)
           (-70.0 60.0)
  end
  begin
     id 8 
     name rtibia
     direction -0.34202 -0.939693 0   
     length 6.59503   
     axis 0 0 -20   XYZ
    dof rx
    limits (-10.0 170.0)
 end
 begin
     id 9 
     name rfoot
     direction -0.101977 -0.280179 0.954516   
     length 1.93723  
     axis -90 -7.62852e-016 -20   XYZ
    dof rx rz
    limits (-45.0 90.0)
           (-20.0 70.0)
  end
  begin
     id 10 
     name rtoes
     direction -1.53564e-011 -4.21897e-011 1   
     length 0.970315   
     axis -90 -7.62852e-016 -20   XYZ
    dof rx
    limits (-90.0 20.0)
  end
  begin
     id 11 
     name lowerback
     direction -0.0339559 0.999421 -0.00235966   
     length 1.88543   
     axis 0 0 0   XYZ
    dof rx ry rz
    limits (-20.0 45.0)
           (-30.0 30.0)
           (-30.0 30.0)
  end
  begin
     id 12 
     name upperback
     direction 0.00401003 0.999739 0.0224689   
     length 1.8856   
     axis 0 0 0   XYZ
    dof rx ry rz
    limits (-20.0 45.0)
           (-30.0 30.0)
           (-30.0 30.0)
  end
  begin
     id 13 
     name thorax
     direction 0.0198619 0.999546 0.0226536   
     length 1.88352   
     axis 0 0 0   XYZ
    dof rx ry rz
    limits (-20.0 45.0)
           (-30.0 30.0)
           (-30.0 30.0)
  end
  begin
     id 14 
     name lowerneck
     direction -0.0461848 0.998632 0.0245198   
     length 1.34895   
     axis 0 0 0   XYZ
    dof rx ry rz
    limits (-20.0 45.0)
           (-30.0 30.0)
           (-30.0 30.0)
  end
  begin
     id 15 
     name upperneck
     direction -0.0180627 0.994724 -0.100984   
     length 1.35214   
     axis 0 0 0   XYZ
    dof rx ry rz
    limits (-20.0 45.0)
           (-30.0 30.0)
           (-30.0 30.0)
  end
  begin
     id 16
     name head
     direction -0.00374772 0.999293 -0.037403  
     length 1.3568  
     axis 0 0 0   XYZ
    dof rx ry rz
    limits (-20.0 45.0)
           (-30.0 30.0)
           (-30.0 30.0)
  end
  begin
     id 17 
     name lclavicle
     direction 0.971773 0.191119 0.138311  
     length 2.84954  
     axis 0 0 0   XYZ
    dof ry rz
    limits (-20.0 10.0)
           (0.0 20.0)
  end
  begin
     id 18 
     name lhumerus
     direction 1 -4.4897e-011 -2.43761e-027   
     length 4.40919   
     axis 180 -30 -90   XYZ
    dof rx ry rz
    limits (-60.0 90.0)
           (-90.0 90.0)
           (-90.0 90.0)
  end
  begin
     id 19
     name lradius
     direction 1 -4.4896e-011 -9.1621e-027   
     length 3.03857   
     axis 180 -30 -90   XYZ
    dof rx
    limits (-10.0 170.0)
  end
  begin
     id 20
     name lwrist
     direction 1 -4.4896e-011 -1.41363e-026   
     length 1.51928   
     axis 1.07133e-014 90 90   XYZ
    dof ry
    limits (-180.0 0.0)
 end
  begin
     id 21 
     name lhand
     direction 1 -4.48978e-011 -2.82725e-026   
     length 0.523208   
     axis 1.80403e-014 90 90   XYZ
    dof rx rz
    limits (-90.0 90.0)
           (-45.0 45.0)
  end
  begin
     id 22 
     name lfingers
     direction 1 -4.48977e-011 -5.6545e-026   
     length 0.421824   
     axis 3.60806e-014 90 90   XYZ
    dof rx
    limits (0.0 90.0)
  end
  begin
     id 23
     name lthumb
     direction 0.707107 -6.34962e-011 0.707107   
     length 0.605657   
     axis -90 45 2.85299e-015   XYZ
    dof rx rz
    limits (-45.0 45.0)
           (-45.0 45.0)
  end
  begin
     id 24 
     name rclavicle
     direction -0.957247 0.24311 0.156766   
     length 3.12406  
     axis 0 0 0   XYZ 
    dof ry rz
    limits (-10.0 20.0)
           (-20.0 0.0)
  end
  begin
     id 25 
     name rhumerus
     direction -1 -4.48964e-011 -1.70632e-027  
     length 4.61969   
     axis 180 30 90   XYZ
    dof rx ry rz
    limits (-90.0 60.0)
           (-90.0 90.0)
           (-90.0 90.0)
  end
  begin
     id 26 
     name rradius
     direction -1 -4.48966e-011 -6.60395e-027   
     length 3.09382   
     axis 180 30 90   XYZ
    dof rx
    limits (-10.0 170.0)
  end
  begin
     id 27 
     name rwrist
     direction -1 -4.48963e-011 -1.41363e-026   
     length 1.54691   
     axis 1.07133e-014 -90 -90   XYZ
    dof ry
    limits (-180.0 0.0)
  end
  begin
     id 28
     name rhand
     direction -1 -4.49013e-011 -2.82725e-026   
     length 0.500896   
     axis 1.80403e-014 -90 -90   XYZ
    dof rx rz
    limits (-90.0 90.0)
           (-45.0 45.0)
  end
  begin
     id 29
     name rfingers
     direction -1 -4.48902e-011 -5.6545e-026   
     length 0.403835   
     axis 3.60806e-014 -90 -90   XYZ
    dof rx
    limits (0.0 90.0)
  end
  begin
     id 30
     name rthumb
     direction -0.707107 -6.34953e-011 0.707107   
     length 0.579829   
     axis -90 -45 -2.85299e-015   XYZ
    dof rx rz
    limits (-45.0 45.0)
           (-45.0 45.0)
  end
:hierarchy
  begin
    root lhipjoint rhipjoint lowerback
    lhipjoint lfemur
    lfemur ltibia
    ltibia lfoot
    lfoot ltoes
    rhipjoint rfemur
    rfemur rtibia
    rtibia rfoot
    rfoot rtoes
    lowerback upperback
    upperback thorax
    thorax lowerneck lclavicle rclavicle
    lowerneck upperneck
    upperneck head
    lclavicle lhumerus
    lhumerus lradius
    lradius lwrist
    lwrist lhand lthumb
    lhand lfingers
    rclavicle rhumerus
    rhumerus rradius
    rradius rwrist
    rwrist rhand rthumb
    rhand rfingers
  end

#!OML:ASF E:\madness\Project 1\Capture day 1\Session 1\Female1.ASF
:FULLY-SPECIFIED
:DEGREES
546
root 32.1058 16.0839 -2.22445 -519.054 -80.0431 528.038
lowerback -4.75255 -1.53254 -6.75984
upperback -1.35886 -1.7945 2.69626
thorax 1.55119 -0.930313 6.5075
lowerneck 2.00875 -11.1601 -7.8636
upperneck 0.696285 -15.1485 -2.734
head 0.252286 -7.62897 0.401049
rclavicle -8.64713e-015 -9.54166e-015
rhumerus -43.6919 25.57 -61.6504
rradius 52.6393
rwrist 0.393635
rhand -4.48249 -48.1997
rfingers 7.12502
rthumb 21.2906 -77.0502
lclavicle -8.64713e-015 -9.54166e-015
lhumerus -85.49 -9.41452 80.1553
lradius 85.4514
lwrist -10.4741
lhand -18.4813 -20.5294
lfingers 7.12502
lthumb 7.80584 9.3065
rfemur -18.141 19.3943 9.30328
rtibia 25.6141
rfoot -22.8679 -11.2271
rtoes 36.5234
lfemur -20.1986 -5.94178 -23.3488
ltibia 31.4175
lfoot -9.86532 16.0073
ltoes -5.86366
547
root 32.1093 16.0796 -2.22415 -518.272 -80.4087 527.138
lowerback -4.60213 -1.47483 -6.66809
upperback -1.3435 -1.72861 2.63658
thorax 1.46793 -0.893595 6.39904
lowerneck 1.97716 -10.4818 -7.43708
upperneck 0.828728 -14.2401 -3.30472
head 0.202635 -7.17992 0.178939
rclavicle 1.635e-014 -2.46493e-014
rhumerus -44.3713 25.2208 -61.6478
rradius 53.1154
rwrist 0.259589
rhand -4.26854 -47.9626
rfingers 7.12502
rthumb 21.4961 -76.7898
lclavicle 1.635e-014 -2.46493e-014
lhumerus -85.1199 -9.93843 80.2225
lradius 85.0988
lwrist -10.2598
lhand -19.1414 -21.2885
lfingers 7.12502
lthumb 7.16863 8.5701
rfemur -17.9933 19.1732 9.34158
rtibia 25.7522
rfoot -23.1131 -11.0057
rtoes 38.1767
lfemur -20.239 -5.92794 -23.4296
ltibia 31.6074
lfoot -9.90612 15.8484
ltoes -6.88105
548
root 32.1162 16.0751 -2.22576 -517.746 -80.7523 526.593
lowerback -4.57883 -1.35384 -6.48949
upperback -1.33564 -1.57432 2.54747
thorax 1.43142 -0.814151 6.21302
lowerneck 1.63871 -9.84358 -6.80081
upperneck 1.13055 -13.3468 -4.06752
head 0.235912 -6.7479 -0.154085
rclavicle 2.18166e-014 1.59028e-015
rhumerus -45.1199 24.6459 -61.6927
rradius 53.5284
rwrist -0.0143471
rhand -4.45898 -47.4305
rfingers 7.12502
rthumb 21.3132 -76.2785
lclavicle 2.18166e-014 1.59028e-015
lhumerus -84.8377 -10.5935 80.2899
lradius 84.9983
lwrist -10.051
lhand -19.6664 -20.9633
lfingers 7.12502
lthumb 6.66188 8.91188
rfemur -17.9937 18.8747 9.41548
rtibia 25.9521
rfoot -23.2617 -10.7607
rtoes 39.4107
lfemur -20.3767 -5.89719 -23.4177
ltibia 31.8241
lfoot -10.1336 15.5538
ltoes -6.94926
549
root 32.1257 16.0665 -2.22764 -516.773 -81.1804 525.712
lowerback -4.65033 -1.27962 -6.33755
upperback -1.37256 -1.47756 2.46964
thorax 1.41247 -0.763539 6.04928
lowerneck 1.4168 -9.16758 -6.2397
upperneck 1.36465 -12.4165 -4.72682
head 0.254562 -6.29478 -0.437575
rclavicle 1.09332e-015 -3.10104e-014
rhumerus -45.736 24.121 -61.7428
rradius 53.7528
rwrist -0.311177
rhand -4.46747 -47.9432
rfingers 7.12502
rthumb 21.305 -76.7921
lclavicle 1.09332e-015 -3.10104e-014
lhumerus -84.6764 -11.1819 80.2973
lradius 85.0958
lwrist -10.2909
lhand -19.5887 -21.2995
lfingers 7.12502
lthumb 6.73692 8.57332
rfemur -18.1546 18.539 9.42535
rtibia 26.2169
rfoot -23.4088 -10.6935
rtoes 39.883
lfemur -20.6958 -5.86399 -23.404
ltibia 32.0365
lfoot -10.2847 15.2189
ltoes -6.79882
550
root 32.1391 16.0579 -2.22951 -515.575 -81.6131 524.575
lowerback -4.54791 -1.23211 -6.22124
upperback -1.4662 -1.42685 2.40926
thorax 1.24615 -0.729548 5.92488
lowerneck 0.53325 -8.32002 -5.1629
upperneck 2.0662 -11.1834 -6.05612
head 0.471066 -5.72256 -1.04705
rclavicle 1.57537e-014 -7.95139e-016
rhumerus -46.4377 23.7641 -61.829
rradius 54.0359
rwrist -0.408368
rhand -4.47759 -48.8027
rfingers 7.12502
rthumb 21.2953 -77.6528
lclavicle 1.57537e-014 -7.95139e-016
lhumerus -84.5711 -11.7134 80.2886
lradius 85.1683
lwrist -10.6357
lhand -19.5071 -21.1997
lfingers 7.12502
lthumb 6.81563 8.67055
rfemur -18.3125 18.2205 9.42018
rtibia 26.5166
rfoot -23.5011 -10.8846
rtoes 39.0282
lfemur -20.9966 -5.96137 -23.3976
ltibia 32.2115
lfoot -10.1843 14.9839
ltoes -7.10113
551
root 32.1508 16.0532 -2.23216 -514.379 -81.9843 523.462
lowerback -4.45718 -1.19662 -6.12781
upperback -1.59986 -1.39251 2.38395
thorax 1.04895 -0.702355 5.84968
lowerneck 0.76043 -7.56681 -4.54187
upperneck 1.96633 -10.2096 -6.84314
head 0.337059 -5.23288 -1.36202
rclavicle -3.91606e-014 -5.56597e-015
rhumerus -47.2315 23.3484 -61.8444
rradius 54.4245
rwrist -0.215899
rhand -4.60282 -48.6854
rfingers 7.12502
rthumb 21.175 -77.5489
lclavicle -3.91606e-014 -5.56597e-015
lhumerus -84.4742 -12.1751 80.3086
lradius 85.1092
lwrist -10.7965
lhand -19.1096 -21.389
lfingers 7.12502
lthumb 7.19935 8.46853
rfemur -18.4854 17.8422 9.42007
rtibia 26.815
rfoot -23.5327 -11.0804
rtoes 37.808
lfemur -21.2549 -6.11993 -23.3811
ltibia 32.3427
lfoot -10.2447 14.6961
ltoes -6.77173
552
root 32.1594 16.0512 -2.23575 -513.45 -82.2479 522.557
lowerback -4.43512 -1.16771 -6.08767
upperback -1.64896 -1.35911 2.41504
thorax 0.980638 -0.68231 5.86231
lowerneck 1.08119 -6.74589 -4.41463
upperneck 1.91156 -9.14509 -7.18195
head 0.260019 -4.69728 -1.47132
rclavicle 1.27719e-014 5.56597e-015
rhumerus -47.8459 23.0892 -61.7821
rradius 54.8036
rwrist -0.186022
rhand -4.86489 -48.5881
rfingers 7.12502
rthumb 20.9232 -77.4797
lclavicle 1.27719e-014 5.56597e-015
lhumerus -84.2356 -12.4397 80.2823
lradius 84.8819
lwrist -11.1563
lhand -18.9646 -21.8832
lfingers 7.12502
lthumb 7.33933 7.96949
rfemur -18.5791 17.3709 9.46591
rtibia 27.0568
rfoot -23.4518 -11.1196
rtoes 37.066
lfemur -21.3954 -6.21586 -23.3751
ltibia 32.4533
lfoot -10.4785 14.4779
ltoes -6.29761
553
root 32.1702 16.0492 -2.24151 -512.653 -82.4912 521.719
lowerback -4.39974 -1.11063 -6.0691
upperback -1.62139 -1.28495 2.43059
thorax 0.978552 -0.645595 5.87273
lowerneck 0.981132 -5.94586 -4.20109
upperneck 2.31432 -8.04288 -7.56185
head 0.394546 -4.169 -1.64055
rclavicle -1.27222e-014 -3.97569e-015
rhumerus -48.4296 23.0719 -61.8173
rradius 55.1839
rwrist -0.475296
rhand -4.85922 -48.7987
rfingers 7.12502
rthumb 20.9287 -77.6897
lclavicle -1.27222e-014 -3.97569e-015
lhumerus -83.8588 -12.7552 80.1936
lradius 84.5898
lwrist -11.82
lhand -18.9947 -22.4526
lfingers 7.12502
lthumb 7.31028 7.40111
rfemur -18.614 16.8706 9.55457
rtibia 27.2611
rfoot -23.3069 -11.083
rtoes 36.6299
lfemur -21.4648 -6.25641 -23.3676
ltibia 32.5486
lfoot -10.5924 14.3273
ltoes -6.15741
554
root 32.181 16.0458 -2.24895 -512.496 -82.7557 521.508
lowerback -4.35753 -1.01102 -5.94702
upperback -1.6178 -1.15963 2.44331
thorax 0.938446 -0.581607 5.8241
lowerneck 0.645521 -5.13204 -3.6253
upperneck 2.87996 -6.89064 -8.24567
head 0.605646 -3.62824 -1.97927
rclavicle -5.41688e-014 2.06736e-014
rhumerus -49.0303 22.737 -61.7694
rradius 55.5313
rwrist -0.477587
rhand -4.27051 -48.8522
rfingers 7.12502
rthumb 21.4942 -77.6796
lclavicle -5.41688e-014 2.06736e-014
lhumerus -83.549 -13.2253 80.1592
lradius 84.4166
lwrist -12.1832
lhand -18.7887 -22.3545
lfingers 7.12502
lthumb 7.50913 7.49225
rfemur -18.6654 16.4729 9.72937
rtibia 27.5147
rfoot -23.2419 -10.9483
rtoes 36.5049
lfemur -21.4884 -6.22261 -23.2682
ltibia 32.5772
lfoot -10.773 14.0904
ltoes -5.46634
555
root 32.1904 16.044 -2.25631 -512.362 -83.0435 521.299
lowerback -4.3151 -0.92024 -5.78249
upperback -1.6349 -1.04854 2.46083
thorax 0.878714 -0.523841 5.75534
lowerneck 0.388413 -4.10804 -2.74612
upperneck 3.20403 -5.47841 -9.23253
head 0.738137 -2.94888 -2.46566
rclavicle 4.12478e-015 -2.3059e-014
rhumerus -49.592 22.0758 -61.614
rradius 55.799
rwrist -0.281683
rhand -4.07735 -48.7568
rfingers 7.12502
rthumb 21.6797 -77.5629
lclavicle 4.12478e-015 -2.3059e-014
lhumerus -83.313 -13.7204 80.2191
lradius 84.323
lwrist -11.914
lhand -18.4869 -21.6236
lfingers 7.12502
lthumb 7.80041 8.21253
rfemur -18.6671 16.0521 9.93242
rtibia 27.7491
rfoot -23.1246 -10.8442
rtoes 36.0273
lfemur -21.5132 -6.20088 -23.1673
ltibia 32.5996
lfoot -10.8313 13.9456
ltoes -6.04892
556
root 32.1992 16.0443 -2.26589 -510.317 -83.2816 519.246
lowerback -4.36238 -0.884304 -5.88872
upperback -1.67651 -0.994551 2.4445
thorax 0.855499 -0.494887 5.80169
lowerneck 0.413306 -3.11646 -1.94033
upperneck 3.33335 -4.13759 -10.0486
head 0.791909 -2.28884 -2.88251
rclavicle -7.65321e-015 1.03368e-014
rhumerus -50.1539 21.7011 -61.5742
rradius 56.0145
rwrist -0.376824
rhand -4.21584 -48.6809
rfingers 7.12502
rthumb 21.5467 -77.5023
lclavicle -7.65321e-015 1.03368e-014
lhumerus -83.0962 -14.1368 80.2784
lradius 84.2385
lwrist -11.504
lhand -18.3962 -20.9462
lfingers 7.12502
lthumb 7.88791 8.88668
rfemur -18.7371 15.5915 9.87635
rtibia 27.9818
rfoot -22.9858 -10.8765
rtoes 34.8607
lfemur -21.6685 -6.24019 -23.2868
ltibia 32.5845
lfoot -10.4855 13.9517
ltoes -8.1742
